<?xml version="1.0" encoding="UTF-8"?>
<svg id="_레이어_1" data-name="레이어 1" xmlns="http://www.w3.org/2000/svg" viewBox="0 0 111.797 46.728">
  <defs>
    <style>
      .cls-1 {
        fill: #343535;
      }

      .cls-2 {
        fill: #d3d3d3;
      }

      .cls-3 {
        fill: #131313;
      }

      .cls-4 {
        fill: none;
        stroke: #8c8c8c;
        stroke-width: .1px;
      }
    </style>
  </defs>
  <polygon class="cls-3" points="83.675 12.524 83.675 24.962 81.341 27.303 81.341 10.182 83.675 12.524"/>
  <polygon class="cls-3" points="102.426 12.515 102.426 24.975 104.76 27.303 104.76 10.182 102.426 12.515"/>
  <polygon class="cls-2" points="60.314 9.621 59.162 9.621 59.162 12.711 66.489 20.039 70.732 20.039 60.314 9.621"/>
  <polygon class="cls-3" points="28.456 9.621 28.456 7.028 7.028 7.028 7.028 30.456 9.621 30.456 9.621 20.039 28.456 20.039 28.456 17.446 9.621 17.446 9.621 9.621 28.456 9.621"/>
  <path class="cls-3" d="M59.162,30.456h-2.593V7.028h22.428v13.01h-19.835v10.418ZM59.162,17.446h17.243v-7.825h-17.243v7.825Z"/>
  <path class="cls-3" d="M50.796,10.459c-2.212-2.213-5.154-3.431-8.283-3.431s-6.071,1.218-8.283,3.431c-2.213,2.212-3.431,5.154-3.431,8.283s1.218,6.07,3.431,8.283c2.213,2.213,5.154,3.431,8.283,3.431s6.071-1.218,8.283-3.431c2.213-2.212,3.431-5.154,3.431-8.283s-1.218-6.071-3.431-8.283ZM42.513,27.455c-2.327,0-4.515-.906-6.161-2.552-1.646-1.646-2.552-3.833-2.552-6.161s.906-4.515,2.552-6.161,3.834-2.552,6.161-2.552,4.515.906,6.161,2.552c1.646,1.646,2.552,3.833,2.552,6.161s-.906,4.515-2.552,6.161c-1.646,1.646-3.833,2.552-6.161,2.552Z"/>
  <polygon class="cls-3" points="104.768 28.335 95.175 18.743 104.768 9.15 104.768 7.029 104.768 7.028 102.648 7.028 93.054 16.621 83.461 7.028 81.341 7.028 81.34 7.029 81.34 9.15 90.933 18.743 81.34 28.335 81.34 30.456 83.462 30.456 93.054 20.864 102.647 30.456 104.768 30.456 104.768 28.335"/>
  <polygon class="cls-3" points="70.732 20.039 66.489 20.039 76.907 30.456 79.028 30.456 79.028 28.335 70.732 20.039"/>
  <path class="cls-1" d="M11.368,32.799v.829h-3.378v2.349h3.173v.829h-3.173v3.022h-.964v-7.029h4.342Z"/>
  <path class="cls-1" d="M15.636,39.828c-.422,0-.806-.061-1.154-.184s-.647-.31-.9-.563c-.254-.252-.45-.564-.589-.937-.14-.372-.21-.811-.21-1.315v-1.031c0-.498.07-.934.21-1.305.139-.373.335-.685.589-.937.253-.252.554-.441.905-.568s.733-.189,1.148-.189.799.063,1.148.189c.351.126.652.315.906.568.253.252.449.564.589.937.139.372.209.807.209,1.305v1.031c0,.504-.07.943-.209,1.315-.14.373-.336.685-.589.937-.254.252-.555.44-.906.563-.35.123-.733.184-1.148.184ZM15.636,33.65c-.272,0-.524.043-.754.128-.231.085-.428.218-.594.398-.165.179-.295.413-.389.7-.094.287-.142.629-.142,1.026v.823c0,.397.047.739.142,1.027.094.287.224.52.389.7.166.179.363.312.594.397.23.085.482.128.754.128s.524-.043.755-.128c.23-.085.428-.218.593-.397.166-.18.296-.414.389-.7.094-.287.142-.63.142-1.027v-.823c0-.397-.047-.739-.142-1.026-.094-.287-.223-.521-.389-.7-.165-.18-.363-.313-.593-.398-.231-.085-.482-.128-.755-.128Z"/>
  <path class="cls-1" d="M20.869,39.828h-.964v-7.029h2.541c.356,0,.675.048.954.146s.512.23.701.4c.188.169.332.37.433.604.1.234.151.491.151.77v.253c0,.397-.102.748-.307,1.053s-.495.533-.871.682l1.392,3.12h-1.041l-1.266-2.934h-1.723v2.934ZM20.869,36.075h1.343c.545,0,.933-.103,1.164-.307.23-.205.345-.479.345-.825v-.195c0-.344-.114-.617-.34-.819-.228-.202-.584-.302-1.071-.302h-1.441v2.447Z"/>
  <path class="cls-1" d="M27.591,34.758c-.033-.072-.062-.142-.088-.21-.026-.068-.052-.138-.078-.209-.025-.072-.055-.153-.088-.244-.032-.091-.067-.195-.107-.311v6.044h-.915v-7.029h1.421l1.947,4.602,1.898-4.602h1.412v7.029h-.925v-6.044c-.033.13-.063.239-.093.327-.029.088-.055.167-.078.239-.023.071-.047.139-.073.204s-.055.133-.088.205l-1.674,3.9h-.817l-1.655-3.9Z"/>
  <path class="cls-1" d="M37.934,36.201l2.268,3.626h-1.139l-1.781-3.012-1.781,3.012h-1.09l2.267-3.666-2.122-3.363h1.148l1.655,2.769,1.646-2.769h1.08l-2.151,3.403Z"/>
  <path class="cls-1" d="M47.781,39.828h-1.012l-.74-2.067h-2.687l-.74,2.067h-.983l2.609-7.029h.934l2.619,7.029ZM43.635,36.932h2.102l-.584-1.647c-.052-.143-.098-.268-.137-.376s-.075-.211-.107-.312c-.033-.1-.067-.206-.102-.316-.036-.111-.077-.247-.122-.409-.052.162-.094.3-.126.414-.033.113-.065.219-.097.316-.033.098-.067.2-.103.307s-.079.232-.131.376l-.593,1.647Z"/>
  <path class="cls-1" d="M50.161,39.828h-.964v-7.029h2.541c.356,0,.675.048.954.146s.512.23.701.4c.188.169.332.37.433.604.1.234.151.491.151.77v.253c0,.397-.102.748-.307,1.053s-.495.533-.871.682l1.392,3.12h-1.041l-1.266-2.934h-1.723v2.934ZM50.161,36.075h1.343c.545,0,.933-.103,1.164-.307.23-.205.345-.479.345-.825v-.195c0-.344-.114-.617-.34-.819-.228-.202-.584-.302-1.071-.302h-1.441v2.447Z"/>
  <path class="cls-1" d="M61.866,38.958c-.351.328-.733.554-1.148.681s-.86.189-1.334.189c-.422,0-.805-.061-1.148-.184-.345-.123-.64-.31-.886-.563-.246-.252-.437-.564-.574-.937-.137-.372-.205-.811-.205-1.315v-1.031c0-.498.068-.934.205-1.305.137-.373.329-.685.579-.937.25-.252.547-.441.891-.568s.724-.189,1.139-.189c.487,0,.912.058,1.275.174.364.117.711.301,1.042.554l-.497.766c-.318-.252-.621-.419-.91-.501s-.592-.123-.91-.123c-.266,0-.511.043-.735.132-.224.088-.419.224-.584.407-.166.183-.294.416-.385.7s-.137.622-.137,1.012v.785c0,.391.046.729.137,1.012.091.284.219.518.385.7.165.183.36.319.584.407.223.088.468.133.735.133.337,0,.675-.051,1.012-.151.338-.101.653-.29.945-.568l.526.719Z"/>
  <path class="cls-1" d="M68.975,32.799v7.029h-.964v-3.236h-3.261v3.236h-.964v-7.029h.964v2.934h3.261v-2.934h.964Z"/>
  <path class="cls-1" d="M71.86,32.799v7.029h-.964v-7.029h.964Z"/>
  <path class="cls-1" d="M75.922,39.828v-6.2h-2.141v-.829h5.247v.829h-2.142v6.2h-.964Z"/>
  <path class="cls-1" d="M85.712,32.799v.829h-3.408v2.184h3.203v.829h-3.203v2.359h3.475v.829h-4.439v-7.029h4.371Z"/>
  <path class="cls-1" d="M92.242,38.958c-.351.328-.733.554-1.148.681s-.86.189-1.334.189c-.422,0-.805-.061-1.148-.184-.345-.123-.64-.31-.886-.563-.246-.252-.437-.564-.574-.937-.137-.372-.205-.811-.205-1.315v-1.031c0-.498.068-.934.205-1.305.137-.373.329-.685.579-.937.25-.252.547-.441.891-.568s.724-.189,1.139-.189c.487,0,.912.058,1.275.174.364.117.711.301,1.042.554l-.497.766c-.318-.252-.621-.419-.91-.501s-.592-.123-.91-.123c-.266,0-.511.043-.735.132-.224.088-.419.224-.584.407-.166.183-.294.416-.385.7s-.137.622-.137,1.012v.785c0,.391.046.729.137,1.012.091.284.219.518.385.7.165.183.36.319.584.407.223.088.468.133.735.133.337,0,.675-.051,1.012-.151.338-.101.653-.29.945-.568l.526.719Z"/>
  <path class="cls-1" d="M95.55,39.828v-6.2h-2.141v-.829h5.247v.829h-2.142v6.2h-.964Z"/>
  <path class="cls-1" d="M102.296,38.977c.5,0,.874-.098,1.124-.293.249-.196.375-.429.375-.7v-.151c0-.151-.026-.284-.078-.397-.051-.114-.139-.215-.263-.303-.123-.088-.282-.169-.477-.242-.195-.072-.435-.137-.72-.194-.33-.069-.639-.149-.924-.241s-.533-.208-.74-.35c-.208-.142-.372-.318-.492-.53-.12-.211-.179-.471-.179-.78v-.17c0-.233.048-.459.146-.676.097-.217.247-.411.447-.581.201-.17.453-.308.755-.412s.654-.156,1.056-.156c.428,0,.818.05,1.169.151.35.102.674.25.973.445l-.458.729c-.26-.17-.522-.293-.789-.369-.266-.075-.561-.113-.886-.113-.442,0-.794.094-1.057.283s-.394.42-.394.691v.151c0,.157.036.292.107.402.072.11.175.206.312.288s.305.153.506.213.431.118.691.175c.435.094.796.203,1.085.326s.521.264.696.421c.175.158.3.335.375.53.075.196.112.41.112.644v.17c0,.315-.063.59-.19.823-.127.233-.301.431-.521.591-.221.161-.485.281-.794.359s-.641.118-.998.118c-.5,0-.959-.077-1.378-.232-.419-.154-.774-.345-1.066-.572l.487-.766c.13.094.279.186.447.274s.341.165.516.232c.175.066.352.118.531.156.179.038.342.057.492.057Z"/>
  <g>
    <line class="cls-4" x1="28.456" x2="28.456" y2="46.728"/>
    <line class="cls-4" x1="7.028" x2="7.028" y2="46.728"/>
    <line class="cls-4" x1="4.686" x2="4.686" y2="46.728"/>
    <line class="cls-4" x1="30.799" x2="30.799" y2="46.728"/>
    <line class="cls-4" x1="54.227" x2="54.227" y2="46.728"/>
    <line class="cls-4" x1="56.57" x2="56.57" y2="46.728"/>
    <line class="cls-4" x1="78.998" x2="78.998" y2="46.728"/>
    <line class="cls-4" x1="81.34" x2="81.34" y2="46.728"/>
    <line class="cls-4" x1="107.111" x2="107.111" y2="46.728"/>
    <line class="cls-4" x1="104.768" x2="104.768" y2="46.728"/>
    <line class="cls-4" y1="7.028" x2="111.797" y2="7.028"/>
    <line class="cls-4" y1="4.686" x2="111.797" y2="4.686"/>
    <line class="cls-4" y1="30.456" x2="111.797" y2="30.456"/>
    <line class="cls-4" y1="32.799" x2="111.797" y2="32.799"/>
    <line class="cls-4" y1="39.828" x2="111.797" y2="39.828"/>
    <line class="cls-4" y1="42.17" x2="111.797" y2="42.17"/>
  </g>
</svg>